<svg width="800" height="600" xmlns="http://www.w3.org/2000/svg">
  <defs>
    <linearGradient id="skyGradient" x1="0%" y1="0%" x2="100%" y2="100%">
      <stop offset="0%" style="stop-color:#FFD700;stop-opacity:1" />
      <stop offset="100%" style="stop-color:#FF8C00;stop-opacity:1" />
    </linearGradient>
    <linearGradient id="groundGradient" x1="0%" y1="0%" x2="100%" y2="100%">
      <stop offset="0%" style="stop-color:#228B22;stop-opacity:1" />
      <stop offset="100%" style="stop-color:#006400;stop-opacity:1" />
    </linearGradient>
  </defs>
  
  <!-- Cielo -->
  <rect width="100%" height="70%" fill="url(#skyGradient)" />
  
  <!-- Suelo -->
  <rect y="70%" width="100%" height="30%" fill="url(#groundGradient)" />
  
  <!-- Sol -->
  <circle cx="100" cy="100" r="50" fill="#FFD700" />
  
  <!-- Nubes -->
  <circle cx="200" cy="150" r="30" fill="white" />
  <circle cx="230" cy="150" r="25" fill="white" />
  <circle cx="260" cy="150" r="20" fill="white" />
  
  <!-- Montañas -->
  <polygon points="0,420 200,300 400,420" fill="#4A6741" />
  <polygon points="300,420 500,320 700,420" fill="#3A5631" />
  
  <!-- Árboles -->
  <rect x="50" y="450" width="20" height="50" fill="#8B4513" />
  <circle cx="60" cy="430" r="30" fill="#228B22" />
  
  <rect x="150" y="450" width="20" height="50" fill="#8B4513" />
  <circle cx="160" cy="430" r="30" fill="#228B22" />
  
  <rect x="250" y="450" width="20" height="50" fill="#8B4513" />
  <circle cx="260" cy="430" r="30" fill="#228B22" />
</svg> 